<?xml version="1.0" encoding="UTF-8" standalone="no"?>
<!-- Created with Inkscape (http://www.inkscape.org/) -->
<svg
   xmlns:svg="http://www.w3.org/2000/svg"
   xmlns="http://www.w3.org/2000/svg"
   xmlns:xlink="http://www.w3.org/1999/xlink"
   xmlns:sodipodi="http://sodipodi.sourceforge.net/DTD/sodipodi-0.dtd"
   xmlns:inkscape="http://www.inkscape.org/namespaces/inkscape"
   version="1.0"
   width="518.41791"
   height="677.56049"
   id="svg8205">
  <defs
     id="defs8207">
    <linearGradient
       id="linearGradient6336">
      <stop
         style="stop-color:#746f61;stop-opacity:1"
         offset="0"
         id="stop6338" />
      <stop
         style="stop-color:#a6a195;stop-opacity:1"
         offset="0.50467288"
         id="stop6344" />
      <stop
         style="stop-color:#777162;stop-opacity:1"
         offset="1"
         id="stop6340" />
    </linearGradient>
    <linearGradient
       x1="183.36525"
       y1="724.34564"
       x2="310.16879"
       y2="724.34564"
       id="linearGradient6342"
       xlink:href="#linearGradient6336"
       gradientUnits="userSpaceOnUse"
       gradientTransform="matrix(1.0080642,0,0,1.2230216,-1.6128382,-145.81625)" />
    <linearGradient
       x1="183.36525"
       y1="724.34564"
       x2="310.16879"
       y2="724.34564"
       id="linearGradient6383"
       xlink:href="#linearGradient6336"
       gradientUnits="userSpaceOnUse"
       gradientTransform="matrix(1.0079398,0,0,1.2230216,277.60944,-145.81622)" />
    <linearGradient
       x1="475.85001"
       y1="643.04596"
       x2="571.00769"
       y2="643.04596"
       id="linearGradient7370"
       xlink:href="#linearGradient6336"
       gradientUnits="userSpaceOnUse" />
    <linearGradient
       x1="475.85001"
       y1="643.04596"
       x2="571.00769"
       y2="643.04596"
       id="linearGradient7374"
       xlink:href="#linearGradient6336"
       gradientUnits="userSpaceOnUse"
       gradientTransform="translate(-279.37749,0.1500086)" />
    <linearGradient
       x1="475.85001"
       y1="643.04596"
       x2="571.00769"
       y2="643.04596"
       id="linearGradient7378"
       xlink:href="#linearGradient6336"
       gradientUnits="userSpaceOnUse"
       gradientTransform="matrix(0.6219843,0,0,0.5609642,-178.06453,152.64322)" />
    <linearGradient
       x1="475.85001"
       y1="643.04596"
       x2="571.00769"
       y2="643.04596"
       id="linearGradient8351"
       xlink:href="#linearGradient6336"
       gradientUnits="userSpaceOnUse"
       gradientTransform="matrix(0.6219843,0,0,0.5861726,295.49302,137.16374)" />
    <linearGradient
       x1="475.85001"
       y1="643.04596"
       x2="571.00769"
       y2="643.04596"
       id="linearGradient8359"
       xlink:href="#linearGradient6336"
       gradientUnits="userSpaceOnUse"
       gradientTransform="matrix(0.353838,0,0,0.3056721,250.57313,260.53524)" />
    <linearGradient
       x1="183.36525"
       y1="724.34564"
       x2="310.16879"
       y2="724.34564"
       id="linearGradient8367"
       xlink:href="#linearGradient6336"
       gradientUnits="userSpaceOnUse"
       gradientTransform="matrix(0.3567478,0,0,0.3805849,348.50774,211.52766)" />
    <linearGradient
       x1="183.36525"
       y1="724.34564"
       x2="310.16879"
       y2="724.34564"
       id="linearGradient8421"
       xlink:href="#linearGradient6336"
       gradientUnits="userSpaceOnUse"
       gradientTransform="matrix(2.1889879,0,0,5.627423e-2,-149.78835,618.93534)" />
    <linearGradient
       x1="219.4072"
       y1="728.40228"
       x2="261.62613"
       y2="706.5564"
       id="linearGradient2409"
       xlink:href="#linearGradient6336"
       gradientUnits="userSpaceOnUse"
       gradientTransform="matrix(1,0,0,1.2230216,-68.63656,-227.27533)" />
    <linearGradient
       x1="183.36525"
       y1="724.34564"
       x2="310.16879"
       y2="724.34564"
       id="linearGradient2464"
       xlink:href="#linearGradient6336"
       gradientUnits="userSpaceOnUse"
       gradientTransform="matrix(0.6221003,0,0,0.7488192,-4.4200608,29.553183)" />
    <linearGradient
       x1="219.4072"
       y1="728.40228"
       x2="261.62613"
       y2="706.5564"
       id="linearGradient2623"
       xlink:href="#linearGradient6336"
       gradientUnits="userSpaceOnUse"
       gradientTransform="matrix(-1,0,0,1.2230216,837.99383,-226.91067)" />
    <linearGradient
       x1="183.36525"
       y1="724.34564"
       x2="310.16879"
       y2="724.34564"
       id="linearGradient2661"
       xlink:href="#linearGradient6336"
       gradientUnits="userSpaceOnUse"
       gradientTransform="matrix(0.6341883,0,0,0.7388315,466.16238,37.52673)" />
    <linearGradient
       x1="225.22354"
       y1="721.19849"
       x2="378.97034"
       y2="721.98529"
       id="linearGradient2495"
       xlink:href="#linearGradient6336"
       gradientUnits="userSpaceOnUse"
       gradientTransform="matrix(1,0,0,1.2230216,87.703971,-136.35352)" />
    <linearGradient
       x1="225.22354"
       y1="721.19849"
       x2="378.97034"
       y2="721.98529"
       id="linearGradient2634"
       xlink:href="#linearGradient6336"
       gradientUnits="userSpaceOnUse"
       gradientTransform="matrix(0.3445149,0,0,0.3519923,284.42852,236.92775)" />
    <linearGradient
       x1="245.9072"
       y1="690.79053"
       x2="260.12613"
       y2="657.08875"
       id="linearGradient4584"
       xlink:href="#linearGradient6336"
       gradientUnits="userSpaceOnUse"
       gradientTransform="matrix(-1,0,0,1.2230216,554.12684,-303.90824)" />
    <linearGradient
       x1="475.85001"
       y1="643.04596"
       x2="571.00769"
       y2="643.04596"
       id="linearGradient4657"
       xlink:href="#linearGradient6336"
       gradientUnits="userSpaceOnUse"
       gradientTransform="matrix(0.353838,0,0,0.3056721,152.1314,260.53524)" />
    <linearGradient
       x1="183.36525"
       y1="724.34564"
       x2="310.16879"
       y2="724.34564"
       id="linearGradient4660"
       xlink:href="#linearGradient6336"
       gradientUnits="userSpaceOnUse"
       gradientTransform="matrix(0.3567478,0,0,0.3812782,250.50774,210.97418)" />
    <linearGradient
       x1="245.9072"
       y1="690.79053"
       x2="260.12613"
       y2="657.08875"
       id="linearGradient9716"
       xlink:href="#linearGradient6336"
       gradientUnits="userSpaceOnUse"
       gradientTransform="matrix(1,0,0,1.2230216,214.55396,-303.47857)" />
    <linearGradient
       x1="133.79698"
       y1="343.1196"
       x2="416.20303"
       y2="343.1196"
       id="linearGradient8174"
       xlink:href="#linearGradient4476"
       gradientUnits="userSpaceOnUse"
       gradientTransform="translate(10.214072,484.98612)" />
    <linearGradient
       id="linearGradient4476">
      <stop
         style="stop-color:#403800;stop-opacity:1"
         offset="0"
         id="stop4478" />
      <stop
         style="stop-color:#c8af00;stop-opacity:1"
         offset="0.5"
         id="stop3321" />
      <stop
         style="stop-color:#403900;stop-opacity:1"
         offset="1"
         id="stop4480" />
    </linearGradient>
    <linearGradient
       x1="133.79698"
       y1="343.1196"
       x2="416.20303"
       y2="343.1196"
       id="linearGradient20342"
       xlink:href="#linearGradient4476"
       gradientUnits="userSpaceOnUse"
       gradientTransform="translate(10.214072,484.98612)" />
    <linearGradient
       id="linearGradient20334">
      <stop
         style="stop-color:#403800;stop-opacity:1"
         offset="0"
         id="stop20336" />
      <stop
         style="stop-color:#c8af00;stop-opacity:1"
         offset="0.5"
         id="stop20338" />
      <stop
         style="stop-color:#403900;stop-opacity:1"
         offset="1"
         id="stop20340" />
    </linearGradient>
    <linearGradient
       x1="133.79698"
       y1="343.1196"
       x2="416.20303"
       y2="343.1196"
       id="linearGradient20510"
       xlink:href="#linearGradient4476"
       gradientUnits="userSpaceOnUse"
       gradientTransform="translate(10.214072,484.98612)" />
    <linearGradient
       x1="-418.38882"
       y1="700.10571"
       x2="-136.18279"
       y2="700.10571"
       id="linearGradient2401"
       xlink:href="#linearGradient8135"
       gradientUnits="userSpaceOnUse"
       gradientTransform="matrix(1.1773172,0,0,1.1773172,657.8819,-479.55183)" />
    <linearGradient
       id="linearGradient8135">
      <stop
         style="stop-color:#5d070b;stop-opacity:1"
         offset="0"
         id="stop8137" />
      <stop
         style="stop-color:#ed1c24;stop-opacity:1"
         offset="0.5"
         id="stop8139" />
      <stop
         style="stop-color:#5d070a;stop-opacity:1"
         offset="1"
         id="stop8141" />
    </linearGradient>
    <clipPath
       id="id0">
      <path
         d="M 14186300,5152250 C 14186300,5152250 14378820,5683670 14655820,5960100 C 14932770,6236530 15134550,6393980 15317940,6457620 C 15501320,6521220 15561370,6529000 15786290,6564360 C 16011200,6599730 16324300,6799880 16324300,6799880 C 16324300,6799880 16231080,6355950 16039160,6146210 C 15847240,5936430 15696860,5756210 15255950,5542640 C 14815080,5329070 14716770,5332170 14507150,5292460 C 14297530,5252800 14186300,5152250 14186300,5152250 z "
         id="path19584" />
    </clipPath>
    <clipPath
       id="id1">
      <path
         d="M 14186300,5152250 C 14186300,5152250 14378820,5683670 14655820,5960100 C 14932770,6236530 15134550,6393980 15317940,6457620 C 15501320,6521220 15561370,6529000 15786290,6564360 C 16011200,6599730 16324300,6799880 16324300,6799880 C 16324300,6799880 16231080,6355950 16039160,6146210 C 15847240,5936430 15696860,5756210 15255950,5542640 C 14815080,5329070 14716770,5332170 14507150,5292460 C 14297530,5252800 14186300,5152250 14186300,5152250 z "
         id="path19587" />
    </clipPath>
    <clipPath
       id="id2">
      <path
         d="M 17905000,7712850 C 18073520,8364410 17965740,9360050 17380990,9792250 C 17019130,10059750 16677260,10107020 16376780,10183810 C 16076350,10260640 15880690,10357280 15880690,10357280 C 15880690,10357280 15826240,10281910 15860480,10024640 C 15894730,9767370 16336720,9229590 16750100,8823770 C 17163530,8417910 17586690,8075310 17705930,7942530 C 17825130,7809750 17905000,7712850 17905000,7712850 z "
         id="path19590" />
    </clipPath>
    <clipPath
       id="id3">
      <path
         d="M 17905000,7712850 C 18073520,8364410 17965740,9360050 17380990,9792250 C 17019130,10059750 16677260,10107020 16376780,10183810 C 16076350,10260640 15880690,10357280 15880690,10357280 C 15880690,10357280 15826240,10281910 15860480,10024640 C 15894730,9767370 16336720,9229590 16750100,8823770 C 17163530,8417910 17586690,8075310 17705930,7942530 C 17825130,7809750 17905000,7712850 17905000,7712850 z "
         id="path19593" />
    </clipPath>
    <clipPath
       id="id4">
      <path
         d="M 13581500,896020 C 13581500,896020 13507750,1005420 13521230,1217530 C 13534760,1429720 13520850,1667650 13394930,1871110 C 13269010,2074540 13179400,2188840 12963110,2342420 C 12746770,2496000 12613910,2641020 12613910,2641020 C 12613910,2641020 12628560,2567290 12600770,2333610 C 12572990,2099930 12639030,1767900 12788160,1522660 C 12937260,1277430 13088640,1169960 13240060,1062440 C 13391520,954890 13581500,896020 13581500,896020 z "
         id="path19596" />
    </clipPath>
    <clipPath
       id="id5">
      <path
         d="M 13581500,896020 C 13581500,896020 13507750,1005420 13521230,1217530 C 13534760,1429720 13520850,1667650 13394930,1871110 C 13269010,2074540 13179400,2188840 12963110,2342420 C 12746770,2496000 12613910,2641020 12613910,2641020 C 12613910,2641020 12628560,2567290 12600770,2333610 C 12572990,2099930 12639030,1767900 12788160,1522660 C 12937260,1277430 13088640,1169960 13240060,1062440 C 13391520,954890 13581500,896020 13581500,896020 z "
         id="path19599" />
    </clipPath>
    <clipPath
       id="id6">
      <path
         d="M 12245000,694180 C 12245000,694180 12263490,790010 12381440,894380 C 12499470,998800 12616520,1131070 12656750,1303380 C 12696940,1475740 12709610,1582390 12676310,1775590 C 12642970,1968740 12649000,2114030 12649000,2114030 C 12649000,2114030 12618150,2067620 12481420,1959330 C 12344650,1851050 12205760,1642340 12155920,1435950 C 12106030,1229640 12129340,1094410 12152690,959180 C 12176040,823950 12245000,694180 12245000,694180 z "
         id="path19602" />
    </clipPath>
    <clipPath
       id="id7">
      <path
         d="M 12245000,694180 C 12245000,694180 12263490,790010 12381440,894380 C 12499470,998800 12616520,1131070 12656750,1303380 C 12696940,1475740 12709610,1582390 12676310,1775590 C 12642970,1968740 12649000,2114030 12649000,2114030 C 12649000,2114030 12618150,2067620 12481420,1959330 C 12344650,1851050 12205760,1642340 12155920,1435950 C 12106030,1229640 12129340,1094410 12152690,959180 C 12176040,823950 12245000,694180 12245000,694180 z "
         id="path19605" />
    </clipPath>
    <clipPath
       id="id8">
      <path
         d="M 13855800,1063560 C 13855800,1063560 14144730,1236390 14395840,1520260 C 14646900,1804080 15009320,2125850 14902180,2599900 C 14794960,3074000 14653620,3080320 14614760,3339730 C 14575910,3599150 14626830,3770220 14626830,3770220 C 14626830,3770220 14383000,3523520 14206080,3269900 C 14029190,3016290 13814960,2784680 13855160,2317540 C 13895350,1850360 13925940,1717060 13919990,1487000 C 13914050,1256930 13855800,1063560 13855800,1063560 z "
         id="path19608" />
    </clipPath>
    <clipPath
       id="id9">
      <path
         d="M 13855800,1063560 C 13855800,1063560 14144730,1236390 14395840,1520260 C 14646900,1804080 15009320,2125850 14902180,2599900 C 14794960,3074000 14653620,3080320 14614760,3339730 C 14575910,3599150 14626830,3770220 14626830,3770220 C 14626830,3770220 14383000,3523520 14206080,3269900 C 14029190,3016290 13814960,2784680 13855160,2317540 C 13895350,1850360 13925940,1717060 13919990,1487000 C 13914050,1256930 13855800,1063560 13855800,1063560 z "
         id="path19611" />
    </clipPath>
    <clipPath
       id="id10">
      <path
         d="M 12394500,3395680 C 12394500,3395680 12811850,3944420 13034430,4022580 C 13256980,4100790 13528460,4187810 13791840,4105950 C 14055180,4024090 14274840,3982840 14458190,3975320 C 14641440,3967880 14933340,4076680 14933340,4076680 C 14933340,4076680 14623180,3565160 14279880,3435210 C 13444760,3119120 13136060,3552010 12394500,3395680 z "
         id="path19614" />
    </clipPath>
    <clipPath
       id="id11">
      <path
         d="M 12394500,3395680 C 12394500,3395680 12811850,3944420 13034430,4022580 C 13256980,4100790 13528460,4187810 13791840,4105950 C 14055180,4024090 14274840,3982840 14458190,3975320 C 14641440,3967880 14933340,4076680 14933340,4076680 C 14933340,4076680 14623180,3565160 14279880,3435210 C 13444760,3119120 13136060,3552010 12394500,3395680 z "
         id="path19617" />
    </clipPath>
    <clipPath
       id="id12">
      <path
         d="M 15415100,2266750 C 15415100,2266750 15072500,3067250 15040750,3598120 C 15009000,4128940 15121780,4606430 15384170,5019470 C 15646520,5432590 15990630,5524080 16064380,5797370 C 16138090,6070620 16184830,6344820 16184830,6344820 C 16184830,6344820 16436200,5568890 16450110,4989950 C 16464070,4411040 16475700,4097140 16285080,3557340 C 16094500,3017540 15910080,2839770 15741730,2656110 C 15573330,2472360 15415100,2266750 15415100,2266750 z "
         id="path19620" />
    </clipPath>
    <clipPath
       id="id13">
      <path
         d="M 15415100,2266750 C 15415100,2266750 15072500,3067250 15040750,3598120 C 15009000,4128940 15121780,4606430 15384170,5019470 C 15646520,5432590 15990630,5524080 16064380,5797370 C 16138090,6070620 16184830,6344820 16184830,6344820 C 16184830,6344820 16436200,5568890 16450110,4989950 C 16464070,4411040 16475700,4097140 16285080,3557340 C 16094500,3017540 15910080,2839770 15741730,2656110 C 15573330,2472360 15415100,2266750 15415100,2266750 z "
         id="path19623" />
    </clipPath>
    <clipPath
       id="id14">
      <path
         d="M 14778300,5948840 C 14778300,5948840 14744050,6582620 14863040,6978300 C 14982060,7373980 15020010,7603400 15258890,7816880 C 15497670,8030360 15592570,8094900 15840580,8240620 C 16088580,8386290 16176460,8311900 16311900,8459600 C 16447340,8607330 16408400,8576220 16408400,8576220 C 16408400,8576220 16456260,8159920 16268950,7694580 C 16081650,7229290 16018230,6996390 15541050,6629930 C 15063870,6263480 14778300,5948840 14778300,5948840 z "
         id="path19626" />
    </clipPath>
    <clipPath
       id="id15">
      <path
         d="M 14778300,5948840 C 14778300,5948840 14744050,6582620 14863040,6978300 C 14982060,7373980 15020010,7603400 15258890,7816880 C 15497670,8030360 15592570,8094900 15840580,8240620 C 16088580,8386290 16176460,8311900 16311900,8459600 C 16447340,8607330 16408400,8576220 16408400,8576220 C 16408400,8576220 16456260,8159920 16268950,7694580 C 16081650,7229290 16018230,6996390 15541050,6629930 C 15063870,6263480 14778300,5948840 14778300,5948840 z "
         id="path19629" />
    </clipPath>
    <clipPath
       id="id16">
      <path
         d="M 14817100,7359190 C 14817100,7359190 14642160,7744560 14622560,8108780 C 14602910,8472960 14617520,8681280 14798320,8973570 C 14979160,9265900 15078200,9394690 15304230,9636270 C 15530230,9877810 15634050,10047200 15634050,10047200 C 15634050,10047200 15922410,9912400 15899710,9442510 C 15877050,8972580 15772410,8747930 15509160,8323420 C 15245990,7899000 15032280,7786500 14933280,7657670 C 14834250,7528890 14817100,7359190 14817100,7359190 z "
         id="path19632" />
    </clipPath>
    <clipPath
       id="id17">
      <path
         d="M 14817100,7359190 C 14817100,7359190 14642160,7744560 14622560,8108780 C 14602910,8472960 14617520,8681280 14798320,8973570 C 14979160,9265900 15078200,9394690 15304230,9636270 C 15530230,9877810 15634050,10047200 15634050,10047200 C 15634050,10047200 15922410,9912400 15899710,9442510 C 15877050,8972580 15772410,8747930 15509160,8323420 C 15245990,7899000 15032280,7786500 14933280,7657670 C 14834250,7528890 14817100,7359190 14817100,7359190 z "
         id="path19635" />
    </clipPath>
    <clipPath
       id="id18">
      <path
         d="M 16890700,8377910 C 17051130,8942290 17125050,9845500 16795330,10364410 C 16616980,10645140 16241680,11040220 16241680,11040220 L 15958610,11235260 L 15003810,11419950 C 15003810,11419950 15606050,10073760 15963870,9583720 C 16246550,9196630 16555640,8723440 16890700,8377910 z "
         id="path19638" />
    </clipPath>
    <clipPath
       id="id19">
      <path
         d="M 16890700,8377910 C 17051130,8942290 17125050,9845500 16795330,10364410 C 16616980,10645140 16241680,11040220 16241680,11040220 L 15958610,11235260 L 15003810,11419950 C 15003810,11419950 15606050,10073760 15963870,9583720 C 16246550,9196630 16555640,8723440 16890700,8377910 z "
         id="path19641" />
    </clipPath>
    <clipPath
       id="id20">
      <path
         d="M 14636800,8617900 C 14636800,8617900 14385650,9019550 14363250,9378490 C 14340890,9737470 14358680,10016090 14444370,10272150 C 14638910,10853640 14843450,11133980 14920430,11806220 L 15473780,10842030 C 15577120,10440810 15364140,9664670 15147630,9293150 C 14931200,8921620 14636800,8617900 14636800,8617900 z "
         id="path19644" />
    </clipPath>
    <clipPath
       id="id21">
      <path
         d="M 14636800,8617900 C 14636800,8617900 14385650,9019550 14363250,9378490 C 14340890,9737470 14358680,10016090 14444370,10272150 C 14638910,10853640 14843450,11133980 14920430,11806220 L 15473780,10842030 C 15577120,10440810 15364140,9664670 15147630,9293150 C 14931200,8921620 14636800,8617900 14636800,8617900 z "
         id="path19647" />
    </clipPath>
    <clipPath
       id="id22">
      <path
         d="M 13618500,13165000 C 13618500,13165000 13805810,12765500 13672690,12491780 C 13539580,12218050 13341760,12063480 13349470,11467820 C 13357180,10870650 13447350,10464360 13763330,9899680 C 13842900,10347570 14249000,10667060 14353770,11133760 C 14426910,11459480 14354710,11848070 14303060,12103190 C 14251450,12358270 14197480,12646940 14197480,12646940 L 14020120,12926900 L 13761260,13161740 L 13618500,13165000 z "
         id="path19650" />
    </clipPath>
    <clipPath
       id="id23">
      <path
         d="M 13618500,13165000 C 13618500,13165000 13805810,12765500 13672690,12491780 C 13539580,12218050 13341760,12063480 13349470,11467820 C 13357180,10870650 13447350,10464360 13763330,9899680 C 13842900,10347570 14249000,10667060 14353770,11133760 C 14426910,11459480 14354710,11848070 14303060,12103190 C 14251450,12358270 14197480,12646940 14197480,12646940 L 14020120,12926900 L 13761260,13161740 L 13618500,13165000 z "
         id="path19653" />
    </clipPath>
    <clipPath
       id="id24">
      <path
         d="M 16911800,4552070 C 17345390,5195780 17459330,5991940 16999470,6647940 C 16741120,7016330 16428070,7174810 16365090,7270590 C 16302070,7366330 16252780,7413080 16252780,7413080 C 16252780,7413080 16069270,6920800 16119500,6571450 C 16169690,6222050 16299440,5856280 16466840,5457210 C 16634290,5058180 16733030,4904090 16787780,4768690 C 16842570,4633240 16911800,4552070 16911800,4552070 z "
         id="path19656" />
    </clipPath>
    <clipPath
       id="id25">
      <path
         d="M 16911800,4552070 C 17345390,5195780 17459330,5991940 16999470,6647940 C 16741120,7016330 16428070,7174810 16365090,7270590 C 16302070,7366330 16252780,7413080 16252780,7413080 C 16252780,7413080 16069270,6920800 16119500,6571450 C 16169690,6222050 16299440,5856280 16466840,5457210 C 16634290,5058180 16733030,4904090 16787780,4768690 C 16842570,4633240 16911800,4552070 16911800,4552070 z "
         id="path19659" />
    </clipPath>
    <clipPath
       id="id26">
      <path
         d="M 17887700,5978240 C 17887700,5978240 17888990,6904050 17620740,7339640 C 17352490,7775200 16983390,8024940 16713930,8236960 C 16444560,8448980 16244120,8612140 16244120,8612140 C 16244120,8612140 16218270,8082830 16362410,7610700 C 16506600,7138580 16710270,6943840 16986750,6740500 C 17263230,6537200 17467730,6334510 17588950,6243110 C 17710130,6151750 17887700,5978240 17887700,5978240 z "
         id="path19662" />
    </clipPath>
    <clipPath
       id="id27">
      <path
         d="M 17887700,5978240 C 17887700,5978240 17888990,6904050 17620740,7339640 C 17352490,7775200 16983390,8024940 16713930,8236960 C 16444560,8448980 16244120,8612140 16244120,8612140 C 16244120,8612140 16218270,8082830 16362410,7610700 C 16506600,7138580 16710270,6943840 16986750,6740500 C 17263230,6537200 17467730,6334510 17588950,6243110 C 17710130,6151750 17887700,5978240 17887700,5978240 z "
         id="path19665" />
    </clipPath>
    <clipPath
       id="id28">
      <path
         d="M 16131400,10733900 C 16493300,10524930 17177130,10811850 17580570,10736090 C 17710360,10711680 17898400,10679760 17898400,10679760 C 17898400,10679760 17808020,11060650 17432590,11353410 C 17057160,11646220 16677510,11850890 16242070,11856220 C 15806670,11861540 15665890,11747070 15424780,11712220 C 15183670,11677330 14841280,11936100 14841280,11936100 C 14876600,11810920 15057490,11382460 15155800,11297120 C 15439210,11051070 15806200,10921640 16131400,10733900 z "
         id="path19668" />
    </clipPath>
    <clipPath
       id="id29">
      <path
         d="M 16131400,10733900 C 16493300,10524930 17177130,10811850 17580570,10736090 C 17710360,10711680 17898400,10679760 17898400,10679760 C 17898400,10679760 17808020,11060650 17432590,11353410 C 17057160,11646220 16677510,11850890 16242070,11856220 C 15806670,11861540 15665890,11747070 15424780,11712220 C 15183670,11677330 14841280,11936100 14841280,11936100 C 14876600,11810920 15057490,11382460 15155800,11297120 C 15439210,11051070 15806200,10921640 16131400,10733900 z "
         id="path19671" />
    </clipPath>
    <clipPath
       id="id30">
      <path
         d="M 10942800,1832570 C 10942800,1832570 11069800,1869180 11268180,1791660 C 11466510,1713970 11697890,1654540 11930600,1711950 C 12163220,1769490 12299740,1819680 12512420,1978200 C 12725140,2136760 12904130,2218660 12904130,2218660 C 12904130,2218660 12829220,2227260 12614640,2325020 C 12400070,2422860 12062930,2461490 11783310,2394760 C 11503690,2328020 11354850,2216990 11205970,2106080 C 11057000,1995130 10942800,1832570 10942800,1832570 z "
         id="path19674" />
    </clipPath>
    <clipPath
       id="id31">
      <path
         d="M 10942800,1832570 C 10942800,1832570 11069800,1869180 11268180,1791660 C 11466510,1713970 11697890,1654540 11930600,1711950 C 12163220,1769490 12299740,1819680 12512420,1978200 C 12725140,2136760 12904130,2218660 12904130,2218660 C 12904130,2218660 12829220,2227260 12614640,2325020 C 12400070,2422860 12062930,2461490 11783310,2394760 C 11503690,2328020 11354850,2216990 11205970,2106080 C 11057000,1995130 10942800,1832570 10942800,1832570 z "
         id="path19677" />
    </clipPath>
    <clipPath
       id="id32">
      <path
         d="M 11216900,2958840 C 11216900,2958840 11343980,2922570 11470720,2751590 C 11597370,2580690 11761590,2407690 11989340,2333050 C 12217190,2258330 12359520,2228420 12624060,2249950 C 12888740,2271600 13084060,2246040 13084060,2246040 C 13084060,2246040 13025130,2293050 12895460,2489590 C 12765750,2686230 12500860,2897690 12228470,2989350 C 11955960,3081180 11770760,3066050 11585440,3050970 C 11400280,3035930 11216900,2958840 11216900,2958840 z "
         id="path19680" />
    </clipPath>
    <clipPath
       id="id33">
      <path
         d="M 11216900,2958840 C 11216900,2958840 11343980,2922570 11470720,2751590 C 11597370,2580690 11761590,2407690 11989340,2333050 C 12217190,2258330 12359520,2228420 12624060,2249950 C 12888740,2271600 13084060,2246040 13084060,2246040 C 13084060,2246040 13025130,2293050 12895460,2489590 C 12765750,2686230 12500860,2897690 12228470,2989350 C 11955960,3081180 11770760,3066050 11585440,3050970 C 11400280,3035930 11216900,2958840 11216900,2958840 z "
         id="path19683" />
    </clipPath>
    <clipPath
       id="id34">
      <path
         d="M 13692900,11728500 C 13692900,11728500 13262030,11754150 12961940,12027490 C 12661940,12300740 12570400,12382340 12449910,12878270 C 12329290,13374200 12409330,13429240 12336400,13605210 C 12263340,13781180 12303490,14017820 12303490,14017820 L 12492950,13824450 L 12673490,13615910 C 12673490,13615910 13309290,12963220 13424310,12807880 C 13630960,12528660 13546910,12202080 13651370,11898400 C 13683120,11806100 13692900,11728500 13692900,11728500 z "
         id="path19686" />
    </clipPath>
    <clipPath
       id="id35">
      <path
         d="M 13692900,11728500 C 13692900,11728500 13262030,11754150 12961940,12027490 C 12661940,12300740 12570400,12382340 12449910,12878270 C 12329290,13374200 12409330,13429240 12336400,13605210 C 12263340,13781180 12303490,14017820 12303490,14017820 L 12492950,13824450 L 12673490,13615910 C 12673490,13615910 13309290,12963220 13424310,12807880 C 13630960,12528660 13546910,12202080 13651370,11898400 C 13683120,11806100 13692900,11728500 13692900,11728500 z "
         id="path19689" />
    </clipPath>
    <clipPath
       id="id36">
      <path
         d="M 14450300,12388500 C 14777910,12129250 15496290,12313860 15884390,12180350 C 16009310,12137370 16190630,12078500 16190630,12078500 C 16190630,12078500 16156820,12468470 15828080,12812580 C 15499350,13156730 15153600,13414340 14723540,13482840 C 14293530,13551290 14137590,13458470 13893930,13458990 C 13650320,13459510 13127480,13474290 13127480,13474290 C 13144150,13345330 13482450,13186080 13567310,13087330 C 13811740,12802780 14155940,12621440 14450300,12388500 z "
         id="path19692" />
    </clipPath>
    <clipPath
       id="id37">
      <path
         d="M 14450300,12388500 C 14777910,12129250 15496290,12313860 15884390,12180350 C 16009310,12137370 16190630,12078500 16190630,12078500 C 16190630,12078500 16156820,12468470 15828080,12812580 C 15499350,13156730 15153600,13414340 14723540,13482840 C 14293530,13551290 14137590,13458470 13893930,13458990 C 13650320,13459510 13127480,13474290 13127480,13474290 C 13144150,13345330 13482450,13186080 13567310,13087330 C 13811740,12802780 14155940,12621440 14450300,12388500 z "
         id="path19695" />
    </clipPath>
    <clipPath
       id="id38">
      <path
         d="M 14684500,13624900 C 14684500,13624900 14440720,14050650 14009580,14218200 C 13578450,14385830 13448790,14437740 12880410,14310160 C 12312110,14182620 12296220,14073300 12079230,14058780 C 11862280,14044290 11832040,14013830 11832040,14013830 L 11838070,13976660 C 12328090,13650420 12854820,13458600 13444350,13353540 C 13834380,13284010 14126160,13534440 14489650,13581370 C 14600110,13595630 14684500,13624900 14684500,13624900 z "
         id="path19698" />
    </clipPath>
    <clipPath
       id="id39">
      <path
         d="M 14684500,13624900 C 14684500,13624900 14440720,14050650 14009580,14218200 C 13578450,14385830 13448790,14437740 12880410,14310160 C 12312110,14182620 12296220,14073300 12079230,14058780 C 11862280,14044290 11832040,14013830 11832040,14013830 L 11838070,13976660 C 12328090,13650420 12854820,13458600 13444350,13353540 C 13834380,13284010 14126160,13534440 14489650,13581370 C 14600110,13595630 14684500,13624900 14684500,13624900 z "
         id="path19701" />
    </clipPath>
    <linearGradient
       id="linearGradient4101">
      <stop
         style="stop-color:#403800;stop-opacity:1"
         offset="0"
         id="stop4103" />
      <stop
         style="stop-color:#c8af00;stop-opacity:1"
         offset="0.5"
         id="stop4105" />
      <stop
         style="stop-color:#403900;stop-opacity:1"
         offset="1"
         id="stop4107" />
    </linearGradient>
    <linearGradient
       x1="133.79698"
       y1="343.1196"
       x2="416.20303"
       y2="343.1196"
       id="linearGradient14433"
       xlink:href="#linearGradient4476"
       gradientUnits="userSpaceOnUse"
       gradientTransform="translate(10.214072,484.98612)" />
    <inkscape:perspective
       sodipodi:type="inkscape:persp3d"
       inkscape:vp_x="0 : 487.5 : 1"
       inkscape:vp_y="0 : 1000 : 0"
       inkscape:vp_z="549.99969 : 487.5 : 1"
       inkscape:persp3d-origin="274.99985 : 325 : 1"
       id="perspective23424" />
    <inkscape:perspective
       sodipodi:type="inkscape:persp3d"
       inkscape:vp_x="0 : 200 : 1"
       inkscape:vp_y="0 : 1000 : 0"
       inkscape:vp_z="400 : 200 : 1"
       inkscape:persp3d-origin="200 : 133.33333 : 1"
       id="perspective2844" />
    <inkscape:perspective
       sodipodi:type="inkscape:persp3d"
       inkscape:vp_x="0 : 50.884724 : 1"
       inkscape:vp_y="0 : 1000 : 0"
       inkscape:vp_z="102.79428 : 50.884724 : 1"
       inkscape:persp3d-origin="51.397141 : 33.923149 : 1"
       id="perspective4364" />
  </defs>
  <g
     transform="translate(-102.88704,-304.52241)"
     style="display:inline"
     id="layer1">
    <path
       d="M 112.9695,307.52239 C 113.17378,428.26711 112.55838,549.02521 113.28173,669.76148 C 117.12861,778.11805 200.06904,877.08759 305.98159,899.97119 C 403.96442,923.84109 513.6539,880.94399 568.959,796.34991 C 602.08111,749.03918 614.27911,690.48976 611.54791,633.49746 C 611.54791,524.8391 611.54791,416.18074 611.54791,307.52239 C 445.3551,307.52239 279.16237,307.52239 112.9695,307.52239 z "
       style="fill:#0071bc;fill-opacity:1;fill-rule:evenodd;stroke:none;stroke-width:3;stroke-linecap:butt;stroke-linejoin:miter;marker:none;marker-start:none;marker-mid:none;marker-end:none;stroke-miterlimit:4;stroke-dasharray:none;stroke-dashoffset:0;stroke-opacity:1;visibility:visible;display:inline;overflow:visible;enable-background:accumulate"
       id="path4505" />
    <path
       d="M 611.97484,487.90876 C 612.01281,548.2322 611.99349,608.57331 611.63109,668.89024 C 607.77647,777.15492 524.66147,876.04033 418.53587,898.90442 C 400.12713,903.37625 381.30118,905.50409 362.50419,905.45042 C 362.32683,905.44992 362.15029,905.4201 361.97294,905.4192 L 361.97294,306.95845 C 445.29378,306.95845 528.6227,306.95845 611.94359,306.95845 C 611.84124,367.27961 611.93686,427.58531 611.97484,487.90876 z "
       style="fill:#ed1c24;fill-opacity:1;fill-rule:evenodd;stroke:#000000;stroke-width:1.49811935;stroke-linecap:butt;stroke-linejoin:miter;marker:none;marker-start:none;marker-mid:none;marker-end:none;stroke-miterlimit:4;stroke-dasharray:none;stroke-dashoffset:0;stroke-opacity:1;visibility:visible;display:inline;overflow:visible;enable-background:accumulate"
       id="path2307" />
    <path
       d="M 112.96958,306.02241 C 113.17386,426.76712 112.55846,547.52522 113.28181,668.26149 C 117.12869,776.61806 200.06912,875.58759 305.98167,898.47109 C 403.9645,922.34109 513.65398,879.44399 568.95908,794.84992 C 602.08119,747.53919 614.27919,688.98977 611.54799,631.99747 C 611.54799,523.33911 611.54799,414.68075 611.54799,306.02241 C 445.35518,306.02241 279.16245,306.02241 112.96958,306.02241 z "
       style="fill:none;fill-opacity:1;fill-rule:evenodd;stroke:#000000;stroke-width:3;stroke-linecap:butt;stroke-linejoin:miter;marker:none;marker-start:none;marker-mid:none;marker-end:none;stroke-miterlimit:4;stroke-dasharray:none;stroke-dashoffset:0;stroke-opacity:1;visibility:visible;display:inline;overflow:visible;enable-background:accumulate"
       id="path4511" />
    <path
       d="M 363.17442,392.30687 L 407.2388,541.32009 L 562.61014,538.7958 L 434.50681,626.75114 L 484.91993,773.73794 L 363.01787,679.08417 L 238.8037,772.45137 L 289.40796,625.99671 L 162.2262,536.71403 L 317.56281,540.85387 L 363.17442,392.30687 z "
       style="fill:#e3e4e5;fill-opacity:1;stroke:#000000;stroke-width:1.875;stroke-miterlimit:4;stroke-dasharray:none;stroke-opacity:1"
       id="path3655" />
    <text
       x="-347.80121"
       y="318.55334"
       style="font-size:10px;font-style:normal;font-variant:normal;font-weight:normal;font-stretch:normal;text-align:center;line-height:100%;writing-mode:lr-tb;text-anchor:middle;fill:#000000;fill-opacity:1;stroke:none;stroke-width:1px;stroke-linecap:butt;stroke-linejoin:miter;stroke-opacity:1;font-family:Calibri"
       id="text6536"
       xml:space="preserve"><tspan
         x="-347.80121"
         y="318.55334"
         id="tspan6538" /></text>
    <path
       d="M 135.66942,892.82501 L 136.87908,891.32228 C 138.34191,891.67432 139.81673,891.89313 141.30357,891.97873 C 145.75676,886.95929 150.26307,881.61748 154.82252,875.9533 C 158.40492,871.50289 161.73756,867.26416 164.82045,863.23708 C 167.02684,860.37776 168.19467,858.65087 168.32396,858.0564 C 168.4292,857.72843 168.38294,857.38164 168.18515,857.016 C 167.98729,856.65042 166.7214,855.35361 164.38746,853.12558 L 166.34151,850.69808 C 169.98225,853.78754 173.39207,856.61169 176.57098,859.17052 C 179.65348,861.65188 182.61103,863.95321 185.44365,866.07454 L 183.48961,868.50205 C 180.69129,866.53532 178.97354,865.5336 178.33639,865.49689 C 177.94631,865.46871 177.48507,865.67685 176.95267,866.12135 C 176.42019,866.56588 173.82985,869.61624 169.18164,875.2724 L 157.67944,889.20656 C 155.55478,891.84599 153.16415,894.95391 150.50754,898.53034 C 152.92279,900.69677 154.73731,902.26851 155.95108,903.24554 C 159.5923,906.1766 162.88046,908.36306 165.81552,909.80493 C 167.72766,908.45494 169.90159,906.76004 172.33731,904.72026 L 174.88041,906.76736 C 172.23884,909.18119 169.11044,912.29846 165.4952,916.11922 C 163.44779,914.91563 161.65346,913.69351 160.11222,912.45288 L 149.74389,903.91628 L 145.1088,900.08997 C 142.96651,898.33376 139.82006,895.91211 135.66942,892.82501 L 135.66942,892.82501 z M 171.45074,917.54903 C 173.52705,918.60214 174.88736,919.11445 175.53167,919.08596 C 175.97657,919.05679 176.94927,918.53246 178.44976,917.51294 C 181.36171,915.47975 185.26137,912.57408 190.14873,908.79594 L 217.58155,887.47812 L 222.30727,890.19983 L 216.95294,933.09532 C 216.25914,938.66078 216.00851,941.78434 216.20104,942.46604 C 216.39348,943.14769 217.58241,944.21774 219.76783,945.67618 L 218.21257,948.37659 C 214.80554,946.21458 211.54824,944.23869 208.44066,942.44893 C 204.73291,940.31351 201.16417,938.35805 197.73444,936.58253 L 199.2897,933.88212 C 201.90178,935.2438 203.45853,935.94774 203.95997,935.99394 C 204.46134,936.04011 204.84782,935.82744 205.11942,935.35596 C 205.3539,934.94873 205.70614,933.29646 206.17616,930.39911 L 207.22047,923.67986 C 204.58757,922.10642 201.6316,920.37543 198.35257,918.48691 C 195.5021,916.84524 192.89651,915.37314 190.53578,914.07057 L 186.99205,916.95291 C 186.02612,917.73803 184.69059,918.9667 182.98544,920.63894 C 182.59763,921.01494 182.29881,921.38512 182.08899,921.74946 C 181.80507,922.24239 181.81346,922.711 182.11413,923.15531 C 182.41478,923.5996 183.80002,924.67568 186.26985,926.38354 L 184.71459,929.08396 C 182.70066,927.72428 180.12918,926.14338 177.00014,924.34126 C 174.02111,922.62554 171.60968,921.33661 169.76587,920.47448 L 171.45074,917.54903 z M 210.48072,898.54368 L 194.19934,911.12882 C 196.10933,912.37158 198.2538,913.678 200.63277,915.04811 C 203.11883,916.47994 205.52862,917.79647 207.86215,918.9977 L 210.48072,898.54368 z M 241.67465,957.44152 L 242.26563,955.52736 C 243.69319,955.34689 245.04361,955.03905 246.31688,954.60386 C 247.92766,951.06326 250.55705,943.38507 254.20502,931.56927 C 256.69291,923.51093 258.25908,918.14467 258.90354,915.47045 C 259.26308,914.05434 259.29263,913.09928 258.99219,912.60527 C 258.6917,912.11135 257.03372,911.25651 254.01827,910.04075 L 254.93755,907.06317 C 260.44892,908.99774 264.82337,910.46477 268.06093,911.46427 L 287.65808,917.28168 C 289.71399,917.91646 291.54352,918.5719 293.14672,919.248 L 293.27446,919.71453 C 291.95925,922.1299 290.52324,925.43974 288.96642,929.64406 L 286.16608,928.77949 C 287.11307,925.29284 287.54628,923.40762 287.46568,923.12385 C 287.38499,922.84014 286.91668,922.44966 286.06076,921.9524 C 284.23062,920.9215 281.29507,919.78224 277.25411,918.5346 C 275.26903,917.92178 272.92759,917.28949 270.22983,916.63773 C 267.66814,923.84507 265.6961,929.60371 264.31372,933.91367 C 266.79119,934.85978 269.14063,935.67573 271.36203,936.36152 C 274.64678,937.37568 276.65285,937.87855 277.38024,937.87014 C 277.82571,937.85239 278.21508,937.59728 278.54835,937.10481 C 278.82142,936.72324 279.44648,935.28552 280.42354,932.79166 L 283.47201,933.73283 C 282.1208,937.69011 281.25916,940.27134 280.88712,941.47654 L 278.60197,949.50691 L 275.55351,948.56574 C 276.34381,945.41894 276.68197,943.56909 276.56799,943.0162 C 276.5137,942.68885 276.25669,942.38949 275.79695,942.1181 C 274.69559,941.49337 272.07716,940.54261 267.94168,939.26581 C 266.6419,938.86454 265.09579,938.46485 263.3033,938.06673 C 262.86932,939.30462 262.45171,940.57343 262.05047,941.87315 C 259.9638,948.63179 258.47686,953.86721 257.58963,957.57943 L 264.57536,959.85267 C 268.56907,961.08568 272.28581,962.00021 275.7256,962.59628 C 276.98757,960.60457 278.31715,958.31017 279.71434,955.71309 L 282.65647,956.62143 C 280.82882,960.61278 279.27678,964.50801 278.00036,968.30716 C 275.77688,967.87953 273.67265,967.3593 271.68763,966.74644 C 270.38786,966.34516 267.83843,965.50629 264.03932,964.22983 C 260.50012,963.03361 257.22993,961.97222 254.22874,961.04564 C 250.28225,959.82721 246.09756,958.62584 241.67465,957.44152 L 241.67465,957.44152 z M 289.209,955.06483 L 292.42453,955.62903 C 291.81629,959.23861 291.56122,961.37214 291.65929,962.02964 C 291.75735,962.68716 292.31451,963.62612 293.33079,964.84648 C 294.34704,966.06687 295.74965,967.16044 297.53862,968.12719 C 299.32756,969.09393 301.2208,969.75255 303.21835,970.10304 C 306.65309,970.7057 309.55997,970.27411 311.93898,968.80828 C 314.31795,967.34246 315.7468,965.24537 316.22554,962.51704 C 316.66576,960.00796 316.32134,957.96384 315.19229,956.38466 C 314.03881,954.80124 311.57462,953.3896 307.79971,952.1497 C 302.19603,950.31276 298.47484,948.73076 296.63612,947.40372 C 294.79737,946.07671 293.47042,944.33729 292.65527,942.18543 C 291.84009,940.03363 291.67186,937.59356 292.15058,934.86519 C 292.95412,930.28554 295.24865,926.68936 299.03416,924.07667 C 302.81962,921.46406 308.25676,920.77963 315.34557,922.02338 C 318.12258,922.51068 320.55271,923.15051 322.63595,923.94286 C 324.71911,924.73529 326.76138,925.7967 328.76279,927.12711 L 328.97432,928.06818 C 328.31524,929.53452 327.79756,930.87497 327.42127,932.08951 C 327.04491,933.30412 326.5287,935.42323 325.87267,938.44684 L 322.69368,937.88905 C 323.23006,934.11626 323.41708,931.97706 323.25473,931.47144 C 322.93291,930.58639 321.90606,929.53365 320.1742,928.31321 C 318.44227,927.09286 316.35832,926.26895 313.92234,925.84149 C 310.58498,925.25597 307.85461,925.6118 305.73122,926.909 C 303.60777,928.20628 302.32167,930.13381 301.87289,932.69157 C 301.59933,934.25065 301.73863,935.67497 302.29078,936.96454 C 302.84289,938.25418 303.74686,939.29164 305.00271,940.07693 C 306.2585,940.86228 309.05337,941.99925 313.38733,943.48785 C 317.32422,944.80639 319.96001,945.88407 321.29471,946.72086 C 323.4909,948.08552 325.02705,949.8491 325.90316,952.0116 C 326.77918,954.17414 326.95649,956.74135 326.43507,959.71326 C 325.52889,964.87761 322.80241,968.82486 318.25558,971.55502 C 313.7087,974.28518 308.01268,975.04974 301.16753,973.84869 C 298.1225,973.31441 295.40892,972.53696 293.02679,971.51636 C 290.64464,970.49575 288.24349,969.08259 285.82332,967.2769 C 286.56099,965.64864 287.12473,964.15306 287.51453,962.79018 C 288.04706,960.89994 288.61188,958.32482 289.209,955.06483 L 289.209,955.06483 z M 339.85216,978.11626 L 339.92719,975.00091 C 341.33651,975.03486 342.81063,974.94666 344.34955,974.73633 C 345.06953,974.62997 345.58131,974.4382 345.88487,974.16101 C 346.1884,973.88382 346.42358,973.36377 346.59042,972.60086 C 346.78908,971.54186 347.03152,967.63888 347.31773,960.89192 C 347.50741,956.09706 347.66241,951.20241 347.78272,946.20792 C 348.01912,936.39212 348.10864,931.39075 348.05132,931.20377 C 347.99395,931.0169 347.12463,930.90318 345.44335,930.86264 C 342.00655,930.77991 339.04953,930.80765 336.57228,930.94586 C 335.13524,931.03498 334.32251,931.13911 334.13411,931.25822 C 333.94569,931.37743 333.79831,931.59034 333.69196,931.89698 C 333.58562,932.2037 333.3232,934.36827 332.90471,938.39067 L 329.71518,938.31384 C 329.87838,933.5926 329.84034,929.52205 329.6011,926.10222 L 330.01621,925.81534 C 337.79625,926.34912 345.37029,926.70472 352.73838,926.88212 C 360.08168,927.05903 368.30691,927.08397 377.41411,926.95691 L 377.80778,927.56014 C 377.25637,930.9362 376.827,934.89652 376.51969,939.44113 L 373.44141,939.36698 C 373.3183,935.23258 373.14966,932.98962 372.93552,932.63806 C 372.76895,932.36196 372.37781,932.16699 371.76211,932.05316 C 369.79181,931.68415 365.8644,931.42875 359.97988,931.28696 C 359.48535,931.2751 359.18686,931.34213 359.08443,931.48806 C 358.98132,931.6588 358.91609,932.31282 358.88873,933.45012 L 358.06594,958.3676 C 357.89202,965.58733 357.84709,970.02077 357.93115,971.66796 C 358.01514,973.31515 358.28788,974.31748 358.74934,974.67494 C 359.06538,974.90522 361.00004,975.21158 364.55333,975.59403 L 364.4783,978.70937 C 360.84785,978.44876 356.99283,978.26933 352.91324,978.17107 C 347.54788,978.04185 343.1942,978.02358 339.85216,978.11626 L 339.85216,978.11626 z M 380.67059,978.78671 L 380.25606,975.69815 C 383.0666,975.07141 384.66542,974.61976 385.05253,974.34322 C 385.30242,974.15996 385.46726,973.90077 385.54706,973.56565 C 385.71323,972.94447 385.61833,970.93593 385.26239,967.54005 C 384.68091,962.27795 384.18784,958.13939 383.78319,955.12435 C 383.23706,951.05531 382.49387,945.88978 381.55362,939.62772 C 380.8272,934.95905 380.20941,932.12235 379.70027,931.11763 C 379.55944,930.81217 379.33045,930.59336 379.01327,930.46121 C 378.58817,930.26877 376.97093,930.21133 374.16155,930.28889 L 373.74702,927.20032 C 378.84741,926.71547 382.13298,926.37432 383.60373,926.17687 L 401.9804,923.37361 C 405.97589,922.83742 408.93855,922.83281 410.86839,923.3598 C 412.79817,923.8869 414.41054,924.93067 415.70551,926.49113 C 417.0004,928.05168 417.8025,929.984 418.1118,932.28812 C 418.50654,935.22966 418.00099,937.92391 416.59515,940.3709 C 415.18924,942.81795 412.49338,945.18232 408.50757,947.46402 L 417.92337,958.21563 L 425.24093,966.44153 C 426.59036,967.75767 427.56754,968.5311 428.1725,968.76182 C 428.77737,968.99257 429.71879,969.03466 430.99677,968.88809 L 431.37675,971.71927 L 429.21234,972.04719 C 422.99272,972.93186 418.99481,973.54329 417.21861,973.8815 C 414.6287,970.7605 410.77918,966.24893 405.67003,960.34679 L 396.55109,949.85478 C 396.71575,949.4085 396.84038,948.9426 396.92496,948.45709 C 397.92189,948.44809 398.65323,948.41232 399.11899,948.34979 C 401.39862,948.04385 403.51813,946.82361 405.47753,944.68906 C 407.43688,942.55457 408.18792,939.7837 407.73066,936.37644 C 407.33255,933.41048 406.15311,931.22311 404.19233,929.81431 C 402.23151,928.40561 399.51073,927.93481 396.02998,928.40192 C 394.92691,928.55003 393.44316,928.8365 391.57875,929.26135 L 392.77715,940.14265 L 394.29186,953.93853 C 394.70965,957.05163 395.36683,961.01845 396.26336,965.83899 C 396.94964,969.46503 397.42044,971.48549 397.67578,971.90039 C 397.86561,972.19932 398.16978,972.42051 398.58832,972.56397 C 399.14254,972.78904 400.83899,972.78594 403.67768,972.55467 L 404.0922,975.64323 C 399.65692,976.06382 395.73568,976.50277 392.32847,976.96006 C 388.70062,977.44697 384.81466,978.05585 380.67059,978.78671 L 380.67059,978.78671 z M 437.41914,970.07521 L 436.86655,968.14962 C 437.96278,967.21751 438.92473,966.22102 439.75243,965.16011 C 439.16365,961.31514 437.16377,953.44947 433.75278,941.56309 C 431.42648,933.45663 429.80151,928.10787 428.87785,925.51681 C 428.40405,924.13474 427.90626,923.31912 427.38448,923.06999 C 426.86273,922.82094 425.00721,923.01249 421.81794,923.64462 L 420.95836,920.64926 C 426.63013,919.25327 431.09443,918.08795 434.3513,917.15329 L 453.93806,911.30095 C 456.00627,910.7075 457.8963,910.25518 459.60817,909.94399 L 459.97034,910.2646 C 460.19092,913.00598 460.79974,916.56217 461.79683,920.93319 L 458.97976,921.7416 C 457.86485,918.30495 457.19605,916.4899 456.97333,916.29646 C 456.75056,916.10313 456.14492,916.0325 455.15642,916.08454 C 453.06046,916.22291 449.97993,916.87535 445.91481,918.04186 C 443.91789,918.61495 441.61204,919.36672 438.99726,920.29714 C 440.7962,927.73165 442.29611,933.6309 443.49701,937.99491 C 446.08843,937.4314 448.50146,936.82899 450.73611,936.18769 C 454.0405,935.23946 455.99482,934.56285 456.59908,934.15785 C 456.96226,933.89928 457.14862,933.4727 457.15815,932.87814 C 457.17796,932.40934 456.91459,930.86391 456.36801,928.24183 L 459.4347,927.36179 C 460.46872,931.41354 461.15971,934.04559 461.50766,935.25796 L 463.98838,943.2301 L 460.92169,944.11013 C 459.86158,941.04369 459.13257,939.31024 458.73465,938.9098 C 458.51012,938.66549 458.1312,938.55553 457.5979,938.57989 C 456.33419,938.65952 453.62224,939.29624 449.46203,940.49006 C 448.15452,940.8653 446.64165,941.37664 444.92341,942.02407 C 445.23742,943.29769 445.58204,944.58824 445.95726,945.89572 C 447.90833,952.69474 449.52803,957.89062 450.81636,961.48339 L 457.90756,959.56423 C 461.92512,958.41133 465.53661,957.14338 468.74203,955.76037 C 468.70869,953.40275 468.56633,950.75478 468.31497,947.81645 L 471.27467,946.9671 C 471.92853,951.30803 472.76052,955.41772 473.77062,959.29617 C 471.67549,960.1547 469.62949,960.87049 467.63261,961.44353 C 466.32509,961.81875 463.7321,962.51139 459.85366,963.52146 C 456.23667,964.45649 452.91862,965.3572 449.8995,966.22359 C 445.92944,967.36286 441.76933,968.64674 437.41914,970.07521 L 437.41914,970.07521 z M 481.86272,956.62149 L 481.0912,954.85337 C 482.08077,953.71999 482.95784,952.51427 483.72239,951.23621 C 481.33655,944.96456 478.68963,938.49652 475.78161,931.83206 C 473.49674,926.59574 471.28378,921.67882 469.14274,917.08126 C 467.63062,913.80142 466.64108,911.96654 466.17411,911.57659 C 465.9322,911.33142 465.60341,911.21179 465.18775,911.21771 C 464.77211,911.22373 463.03646,911.74497 459.98078,912.78142 L 458.73449,909.92524 C 463.15891,908.12963 467.24124,906.41577 470.98147,904.78366 C 474.60838,903.20112 478.01787,901.64593 481.20997,900.11809 L 482.45627,902.97428 C 479.41708,904.54334 477.73366,905.6017 477.40599,906.14939 C 477.20033,906.48204 477.17116,906.98722 477.31849,907.66495 C 477.46582,908.34278 478.9694,912.05139 481.82919,918.7908 L 488.85072,935.43891 C 490.2058,938.54447 491.85291,942.10275 493.79202,946.11376 C 496.83076,944.97671 499.06419,944.0966 500.49231,943.47343 C 504.77657,941.60401 508.23738,939.70263 510.87475,937.76926 C 510.56399,935.44931 510.06883,932.73758 509.38928,929.63409 L 512.38148,928.32845 C 513.29718,931.78763 514.61084,936.0041 516.32246,940.97788 C 514.30743,942.23492 512.3932,943.25908 510.57979,944.05037 L 498.21163,949.28529 L 492.67359,951.62085 C 490.12484,952.70601 486.52123,954.37289 481.86272,956.62149 L 481.86272,956.62149 z M 524.22274,937.41481 L 523.22366,935.76456 C 524.05427,934.51001 524.76377,933.19867 525.35216,931.83054 C 522.15606,925.93049 518.67513,919.87037 514.90938,913.65018 C 511.95059,908.76294 509.10541,904.18273 506.37383,899.90954 C 504.44031,896.85908 503.21629,895.17155 502.70175,894.84695 C 502.42947,894.636 502.08773,894.56101 501.67652,894.62197 C 501.26535,894.68303 499.6141,895.42974 496.72277,896.86209 L 495.10888,894.19631 C 499.25625,891.83007 503.07538,889.59022 506.56628,887.47674 C 509.95141,885.4274 513.12467,883.43399 516.08608,881.49652 L 517.69998,884.1623 C 514.89559,886.12036 513.3673,887.39254 513.11513,887.97882 C 512.95537,888.3358 512.99343,888.84039 513.2293,889.49262 C 513.46518,890.14492 515.44706,893.62151 519.17495,899.92238 L 528.34127,915.49287 C 530.09605,918.3914 532.20026,921.69996 534.65394,925.41855 C 537.51515,923.88873 539.61221,922.72034 540.94513,921.91337 C 544.94378,919.49256 548.12202,917.1492 550.47985,914.88331 C 549.86432,912.62502 549.01409,910.00287 547.92915,907.01683 L 550.72188,905.32608 C 552.08803,908.63337 553.94901,912.6385 556.3048,917.34152 C 554.47417,918.85456 552.71259,920.12341 551.02006,921.14809 L 539.45494,927.97625 L 534.27535,931.02528 C 531.89294,932.43871 528.54208,934.56855 524.22274,937.41481 L 524.22274,937.41481 z M 559.68114,912.23049 C 561.37993,910.63857 562.32593,909.53494 562.51916,908.91963 C 562.64366,908.49151 562.48296,907.39824 562.03707,905.63981 C 561.12038,902.20862 559.72091,897.55119 557.83865,891.6675 L 547.16917,858.60436 L 551.34092,855.09202 L 589.83005,874.77143 C 594.8241,877.32388 597.67435,878.62601 598.38083,878.67782 C 599.08721,878.7297 600.49892,877.97761 602.61593,876.42153 L 604.62299,878.80538 C 601.42756,881.26941 598.45822,883.65627 595.71493,885.96595 C 592.44181,888.7217 589.38532,891.40825 586.5454,894.02559 L 584.53834,891.64173 C 586.71009,889.6516 587.90329,888.42878 588.11793,887.97325 C 588.33252,887.51778 588.2646,887.08191 587.91419,886.66565 C 587.61151,886.30621 586.17881,885.41095 583.61609,883.97988 L 577.65727,880.704 C 575.27938,882.6414 572.6431,884.82865 569.74842,887.26576 C 567.23213,889.38435 564.9588,891.33069 562.92843,893.10477 L 564.42751,897.4197 C 564.83562,898.59565 565.53443,900.27046 566.52393,902.44412 C 566.74491,902.93701 566.99081,903.34427 567.2616,903.66588 C 567.62796,904.10104 568.07128,904.25318 568.59154,904.12229 C 569.11179,903.99142 570.59619,903.05686 573.04475,901.31863 L 575.05181,903.70249 C 573.08618,905.13111 570.72225,907.00823 567.96002,909.33387 C 565.33021,911.54801 563.29535,913.37439 561.85547,914.81301 L 559.68114,912.23049 z M 555.14505,869.05681 L 561.41444,888.65691 C 563.23468,887.28607 565.19483,885.71656 567.29489,883.94841 C 569.48954,882.10068 571.54978,880.28525 573.47562,878.50215 L 555.14505,869.05681 z "
       style="font-size:72px;font-style:normal;font-variant:normal;font-weight:bold;font-stretch:normal;text-align:start;line-height:125%;writing-mode:lr-tb;text-anchor:start;fill:#000000;fill-opacity:1;stroke:none;stroke-width:1px;stroke-linecap:butt;stroke-linejoin:miter;stroke-opacity:1;font-family:Book Antiqua"
       id="text3263" />
  </g>
</svg>
